<?xml version="1.0" encoding="utf-8"?>
<!-- Generator: Adobe Illustrator 15.1.0, SVG Export Plug-In . SVG Version: 6.00 Build 0)  -->
<!DOCTYPE svg PUBLIC "-//W3C//DTD SVG 1.1//EN" "http://www.w3.org/Graphics/SVG/1.1/DTD/svg11.dtd">
<svg version="1.1" id="Layer_1" xmlns="http://www.w3.org/2000/svg" xmlns:xlink="http://www.w3.org/1999/xlink" x="0px" y="0px"
	 width="100px" height="100px" viewBox="0 0 100 100" enable-background="new 0 0 100 100" xml:space="preserve">
<path fill="#F1F1F1" d="M68.122,39.673c-0.164,0-0.323,0.02-0.486,0.024c-1.697-6.036-6.396-10.799-12.386-12.596v23.372
	l11.721-0.002L49.998,67.444L33.03,50.477l11.716-0.002V27.082c-7.594,2.251-13.13,9.268-13.13,17.596
	c0,0.477,0.036,0.944,0.071,1.412h-3.016c-7.384,0-13.413,6.029-13.413,13.411c0,7.386,6.029,13.415,13.413,13.415h40.172
	c2.015,0,3.92-0.462,5.638-1.265c6.025-2.495,10.262-8.425,10.262-15.356C84.743,47.109,77.308,39.673,68.122,39.673z"/>
</svg>
