<?xml version="1.0" encoding="utf-8"?>
<!-- Generator: Adobe Illustrator 15.1.0, SVG Export Plug-In . SVG Version: 6.00 Build 0)  -->
<!DOCTYPE svg PUBLIC "-//W3C//DTD SVG 1.1//EN" "http://www.w3.org/Graphics/SVG/1.1/DTD/svg11.dtd">
<svg version="1.1" xmlns="http://www.w3.org/2000/svg" xmlns:xlink="http://www.w3.org/1999/xlink" x="0px" y="0px" width="100px"
	 height="100px" viewBox="0 0 100 100" enable-background="new 0 0 100 100" xml:space="preserve">
<g id="Layer_1">
	<polygon fill="#E8E8E8" points="38.298,26.567 26.566,38.3 23.127,29.731 29.73,23.128 	"/>
	<path fill="#E8E8E8" d="M31.181,31.183c-10.392,10.392-10.392,27.242,0,37.633c10.393,10.393,27.243,10.393,37.636,0
		s10.393-27.241,0-37.633S41.574,20.79,31.181,31.183z M62.066,62.068c-6.664,6.665-17.471,6.665-24.136,0
		c-6.666-6.665-6.666-17.472,0-24.137c6.665-6.666,17.472-6.665,24.136,0C68.733,44.597,68.733,55.402,62.066,62.068z"/>
	<polygon fill="#E8E8E8" points="26.565,61.7 38.298,73.434 29.73,76.871 23.127,70.268 	"/>
	<polygon fill="#E8E8E8" points="61.701,73.436 73.436,61.703 76.873,70.271 70.27,76.874 	"/>
	<polygon fill="#E8E8E8" points="73.431,38.3 61.699,26.567 70.268,23.13 76.868,29.733 	"/>
	<polygon fill="#E8E8E8" points="58.295,25.157 41.703,25.157 45.331,16.667 54.667,16.668 	"/>
	<polygon fill="#E8E8E8" points="25.157,41.704 25.157,58.296 16.667,54.668 16.668,45.332 	"/>
	<polygon fill="#E8E8E8" points="41.705,74.843 58.296,74.843 54.668,83.332 45.333,83.332 	"/>
	<polygon fill="#E8E8E8" points="74.843,58.295 74.843,41.704 83.332,45.332 83.332,54.667 	"/>
</g>
<g id="Layer_2">
</g>
</svg>
