<?xml version="1.0" encoding="utf-8"?>
<!-- Generator: Adobe Illustrator 15.1.0, SVG Export Plug-In . SVG Version: 6.00 Build 0)  -->
<!DOCTYPE svg PUBLIC "-//W3C//DTD SVG 1.1//EN" "http://www.w3.org/Graphics/SVG/1.1/DTD/svg11.dtd">
<svg version="1.1" id="Layer_1" xmlns="http://www.w3.org/2000/svg" xmlns:xlink="http://www.w3.org/1999/xlink" x="0px" y="0px"
	 width="100px" height="100px" viewBox="0 0 100 100" enable-background="new 0 0 100 100" xml:space="preserve">
<polygon fill="#E8E8E8" points="39.554,29.083 29.082,39.556 26.011,31.907 31.906,26.013 "/>
<path fill="#E8E8E8" d="M33.201,33.203c-9.276,9.277-9.276,24.318,0,33.594c9.277,9.277,24.319,9.277,33.596,0
	s9.277-24.317,0-33.594C57.52,23.926,42.478,23.925,33.201,33.203z M60.771,60.773c-5.949,5.949-15.596,5.949-21.545,0
	c-5.95-5.95-5.95-15.597,0-21.546c5.949-5.95,15.596-5.95,21.545,0C66.723,45.177,66.723,54.822,60.771,60.773z"/>
<polygon fill="#E8E8E8" points="29.081,60.444 39.554,70.918 31.906,73.987 26.011,68.092 "/>
<polygon fill="#E8E8E8" points="60.445,70.92 70.92,60.447 73.988,68.095 68.094,73.989 "/>
<polygon fill="#E8E8E8" points="70.916,39.556 60.443,29.083 68.092,26.014 73.984,31.908 "/>
<polygon fill="#E8E8E8" points="57.404,27.823 42.593,27.823 45.832,20.245 54.166,20.246 "/>
<polygon fill="#E8E8E8" points="27.823,42.595 27.823,57.405 20.245,54.167 20.246,45.833 "/>
<polygon fill="#E8E8E8" points="42.595,72.177 57.405,72.177 54.167,79.755 45.833,79.755 "/>
<polygon fill="#E8E8E8" points="72.177,57.404 72.177,42.594 79.755,45.833 79.755,54.166 "/>
</svg>
