<?xml version="1.0" encoding="utf-8"?>
<!-- Generator: Adobe Illustrator 15.1.0, SVG Export Plug-In . SVG Version: 6.00 Build 0)  -->
<!DOCTYPE svg PUBLIC "-//W3C//DTD SVG 1.1//EN" "http://www.w3.org/Graphics/SVG/1.1/DTD/svg11.dtd">
<svg version="1.1" id="Layer_2" xmlns="http://www.w3.org/2000/svg" xmlns:xlink="http://www.w3.org/1999/xlink" x="0px" y="0px"
	 width="114px" height="50px" viewBox="0 0 114 50" enable-background="new 0 0 114 50" fill="#EEEEEE" stroke="#EEEEEE" xml:space="preserve">
<g id="widget_1_">
	<path id="Shape_1_"  stroke-miterlimit="10" d="M1.615,0.724h5.528v27.637H1.615V0.724z"/>
	<path  stroke-miterlimit="10" d="M29.253,28.361v-5.529H10.321v5.529H29.253z M29.253,17.304
		v-5.528H10.321v5.528H29.253z M29.253,6.249V0.721H10.321v5.528H29.253z"/>
	<path  stroke-miterlimit="10" d="M34.416,0.721h5.527v27.636h-5.527V0.721z"/>
	<path  stroke-miterlimit="10" d="M49,22.828L49,22.828l-5.864,0.001v5.532L49,28.355l0,0
		c8.318,0,15.068-6.19,15.068-13.818C64.068,6.91,57.318,0.72,49,0.72l0,0l-5.878,0.003v5.525H49l0,0
		c5.003,0,9.041,3.703,9.041,8.29S54.003,22.828,49,22.828z"/>
</g>
<g id="color_for_EDU_1_">
	<path display="none" fill="#CCCCCC" d="M29.253,6.249V0.721H10.321v5.528H29.253z"/>
	<path display="none" fill="#CCCCCC" d="M29.253,17.306v-5.527H10.321v5.528L29.253,17.306L29.253,17.306z"/>
	<path display="none" fill="#CCCCCC" d="M29.253,28.361v-5.529H10.321v5.529H29.253z"/>
	<path  stroke-miterlimit="10" d="M34.416,0.721h5.527v27.636h-5.527V0.721z"/>
	<path  stroke-miterlimit="10" d="M69.23,0.724h5.528v27.637H69.23V0.724z"/>
	<g>
		<path  stroke-miterlimit="10" d="M91.342,0.724v13.819c0,4.588-3.703,8.291-8.291,8.291
			c-1.934,0-3.705-0.664-5.113-1.768v6.313c1.584,0.631,3.308,0.98,5.113,0.98c7.629,0,13.818-6.19,13.818-13.817V0.724H91.342z"/>
	</g>
</g>
<g id="ring_for_U_1_">
	<path  stroke-miterlimit="10" d="M104.391,17.993c-7.744-0.746-18.383-5.196-23.746-9.934
		c-5.363-4.738-3.434-7.978,4.312-7.232c7.743,0.746,18.381,5.196,23.745,9.934C114.064,15.499,112.133,18.738,104.391,17.993z
		 M103.088,10.221c-3.225-2.85-9.59-5.512-14.246-5.96c-4.656-0.448-5.812,1.49-2.586,4.339s9.592,5.512,14.247,5.96
		C105.16,15.008,106.314,13.07,103.088,10.221z"/>
	<path  stroke-miterlimit="10" d="M96.869,0.724v6.805l-0.182-0.082
		c-0.028-0.014-0.028-0.014-0.058-0.026c-1.399-0.645-2.084-0.944-2.953-1.271c-0.76-0.308-1.545-0.535-2.336-0.747V0.724H96.869z"
		/>
</g>
<g id="Layer_2_Copy_1_">
	<g enable-background="new    ">
		<path  stroke-miterlimit="10" d="M13.499,43.018v-1.371h1.527c0.38,0,0.625-0.01,0.735-0.027
			c0.215-0.036,0.322-0.125,0.322-0.268c0-0.129-0.193-0.33-0.58-0.606l-1.297-0.919c-0.491-0.35-0.736-0.805-0.736-1.361
			c0-0.503,0.183-0.89,0.548-1.158c0.364-0.271,0.884-0.404,1.559-0.404h1.738v1.369h-1.306c-0.38,0-0.628,0.02-0.745,0.057
			c-0.159,0.049-0.239,0.129-0.239,0.238c0,0.074,0.027,0.137,0.083,0.188c0.055,0.052,0.208,0.164,0.46,0.336l1.435,0.982
			c0.423,0.288,0.635,0.678,0.635,1.168c0,0.354-0.09,0.68-0.271,0.971c-0.181,0.291-0.423,0.498-0.727,0.621
			c-0.304,0.122-0.719,0.185-1.246,0.185H13.499L13.499,43.018z"/>
		<path  stroke-miterlimit="10" d="M31.864,43.018h-1.508v-3.846c0-0.734,0.187-1.302,0.561-1.701
			c0.429-0.46,0.975-0.688,1.637-0.688c0.637,0,1.171,0.207,1.6,0.62c0.429,0.414,0.644,0.931,0.644,1.55
			c0,0.668-0.23,1.207-0.69,1.618c-0.362,0.324-0.843,0.486-1.444,0.486h-0.487v-1.352h0.404c0.233,0,0.421-0.068,0.565-0.207
			s0.216-0.32,0.216-0.547c0-0.215-0.07-0.393-0.211-0.533c-0.141-0.143-0.319-0.212-0.533-0.212c-0.503,0-0.754,0.347-0.754,1.039
			V43.018L31.864,43.018z"/>
		<path  stroke-miterlimit="10" d="M51.877,43.018h-1.508v-2.162h-1.214v-1.241h1.214v-0.459
			c0-0.302-0.046-0.517-0.138-0.646c-0.142-0.201-0.338-0.303-0.589-0.303c-0.294,0-0.509,0.105-0.644,0.32
			c-0.086,0.143-0.129,0.348-0.129,0.617v3.871h-1.508v-3.845c0-0.687,0.181-1.241,0.542-1.664c0.417-0.483,0.987-0.728,1.711-0.728
			c0.767,0,1.367,0.281,1.802,0.847c0.307,0.397,0.46,0.937,0.46,1.608L51.877,43.018L51.877,43.018z"/>
		<path  stroke-miterlimit="10" d="M68.523,41.646v1.369h-0.828c-0.938,0-1.697-0.318-2.279-0.955
			c-0.547-0.603-0.818-1.302-0.818-2.099c0-0.92,0.34-1.692,1.021-2.317c0.546-0.496,1.218-0.744,2.015-0.744h0.893v1.416h-0.459
			c-0.584,0-1.034,0.142-1.353,0.423c-0.368,0.325-0.553,0.739-0.553,1.241c0,0.57,0.22,1.016,0.662,1.334
			c0.307,0.221,0.735,0.33,1.288,0.33L68.523,41.646L68.523,41.646z"/>
		<path  stroke-miterlimit="10" d="M84.968,41.729v1.289h-0.864c-1.006,0-1.791-0.326-2.354-0.977
			c-0.534-0.613-0.8-1.299-0.8-2.061c0-0.9,0.329-1.664,0.991-2.289c0.56-0.527,1.246-0.791,2.062-0.791h0.966v1.287h-0.578
			c-0.957,0-1.537,0.396-1.738,1.187h2.316v1.159H82.65c0.066,0.344,0.242,0.629,0.523,0.855c0.282,0.226,0.672,0.34,1.167,0.34
			H84.968L84.968,41.729z"/>
	</g>
	<path fill-opacity="0" d="M1.615,32.67h95.254"/>
	<path fill-opacity="0" d="M1.615,48.094h95.254"/>
	<path fill-opacity="0" d="M1.615,32.398v15.965"/>
	<path fill-opacity="0" d="M96.869,32.398v15.965"/>
</g>
</svg>
